<?xml version="1.0" encoding="UTF-8" standalone="no"?>
<!-- Created with Inkscape (http://www.inkscape.org/) -->

<svg
   xmlns:dc="http://purl.org/dc/elements/1.1/"
   xmlns:cc="http://creativecommons.org/ns#"
   xmlns:rdf="http://www.w3.org/1999/02/22-rdf-syntax-ns#"
   xmlns:svg="http://www.w3.org/2000/svg"
   xmlns="http://www.w3.org/2000/svg"
   xmlns:sodipodi="http://sodipodi.sourceforge.net/DTD/sodipodi-0.dtd"
   xmlns:inkscape="http://www.inkscape.org/namespaces/inkscape"
   width="512"
   height="512"
   id="svg2"
   version="1.1"
   inkscape:version="0.48.2 r9819"
   sodipodi:docname="fully_supported.svg">
  <defs
     id="defs4" />
  <sodipodi:namedview
     id="base"
     pagecolor="#c0c0c0"
     bordercolor="#666666"
     borderopacity="1.0"
     inkscape:pageopacity="1"
     inkscape:pageshadow="2"
     inkscape:zoom="0.89184514"
     inkscape:cx="221.8963"
     inkscape:cy="237.56927"
     inkscape:document-units="px"
     inkscape:current-layer="layer1"
     showgrid="false"
     inkscape:snap-bbox="true"
     inkscape:bbox-paths="true"
     inkscape:bbox-nodes="true"
     inkscape:snap-bbox-edge-midpoints="true"
     inkscape:snap-bbox-midpoints="true"
     inkscape:snap-page="true"
     inkscape:window-width="979"
     inkscape:window-height="780"
     inkscape:window-x="105"
     inkscape:window-y="8"
     inkscape:window-maximized="0"
     inkscape:snap-global="false" />
  <metadata
     id="metadata7">
    <rdf:RDF>
      <cc:Work
         rdf:about="">
        <dc:format>image/svg+xml</dc:format>
        <dc:type
           rdf:resource="http://purl.org/dc/dcmitype/StillImage" />
        <dc:title></dc:title>
      </cc:Work>
    </rdf:RDF>
  </metadata>
  <g
     inkscape:label="Layer 1"
     inkscape:groupmode="layer"
     id="layer1"
     transform="translate(0,-540.36218)">
    <path
       sodipodi:type="arc"
       style="fill:#ffff00;fill-opacity:1;fill-rule:evenodd;stroke:#000000;stroke-width:11.35077953;stroke-miterlimit:4;stroke-opacity:1;stroke-dasharray:none"
       id="path2985"
       sodipodi:cx="298.5"
       sodipodi:cy="255.5"
       sodipodi:rx="171.5"
       sodipodi:ry="180.5"
       d="m 470,255.5 a 171.5,180.5 0 1 1 -343,0 171.5,180.5 0 1 1 343,0 z"
       transform="matrix(1.4460655,0,0,1.3739625,-175.65056,445.31476)" />
    <path
       style="fill:none;stroke:#000000;stroke-width:16;stroke-linecap:butt;stroke-linejoin:miter;stroke-miterlimit:4;stroke-opacity:1;stroke-dasharray:none"
       d="m 110,888.36218 c 2,36 27.50233,75.30531 84,76 56.49767,0.69469 139,-18 197,-82"
       id="path3776"
       inkscape:connector-curvature="0"
       sodipodi:nodetypes="czc" />
    <path
       style="fill:none;stroke:#000000;stroke-width:16;stroke-linecap:butt;stroke-linejoin:miter;stroke-miterlimit:4;stroke-opacity:1;stroke-dasharray:none"
       d="m 378.2127,781.08981 c -59,-4 -114,38 -114,38 0,0 18,-73 78,-102"
       id="path3778"
       inkscape:connector-curvature="0"
       sodipodi:nodetypes="ccc" />
    <path
       style="fill:none;stroke:#000000;stroke-width:16;stroke-linecap:butt;stroke-linejoin:miter;stroke-miterlimit:4;stroke-opacity:1;stroke-dasharray:none"
       d="m 56,729.36218 c 4,-23 8.319494,-42.96717 34,-43 19.70757,-0.0252 33.85758,4.7013 51.06195,29.9292 C 158.26631,741.51929 157,773.36218 157,773.36218"
       id="path3780"
       inkscape:connector-curvature="0"
       sodipodi:nodetypes="cszc" />
    <path
       sodipodi:type="arc"
       style="fill:#000000;fill-opacity:1;fill-rule:evenodd;stroke:#000000;stroke-width:16;stroke-linecap:butt;stroke-linejoin:miter;stroke-miterlimit:4;stroke-opacity:1;stroke-dasharray:none;stroke-dashoffset:0"
       id="path3782"
       sodipodi:cx="140"
       sodipodi:cy="238.5"
       sodipodi:rx="33"
       sodipodi:ry="60.5"
       d="m 173,238.5 a 33,60.5 0 1 1 -66,0 33,60.5 0 1 1 66,0 z"
       transform="translate(-15,544.36218)" />
    <path
       sodipodi:type="arc"
       style="fill:#ffffff;fill-opacity:1;fill-rule:evenodd;stroke:none"
       id="path3784"
       sodipodi:cx="25.142965"
       sodipodi:cy="305.3371"
       sodipodi:rx="75.428894"
       sodipodi:ry="58.258091"
       d="m 100.57186,305.3371 a 75.428894,58.258091 0 1 1 -150.857789,0 75.428894,58.258091 0 1 1 150.857789,0 z"
       transform="matrix(0.16260159,0,0,0.20018633,100.56463,761.29344)" />
  </g>
</svg>
