<?xml version="1.0" encoding="UTF-8" standalone="no"?>
<!-- Created with Inkscape (http://www.inkscape.org/) -->

<svg
   xmlns:dc="http://purl.org/dc/elements/1.1/"
   xmlns:cc="http://creativecommons.org/ns#"
   xmlns:rdf="http://www.w3.org/1999/02/22-rdf-syntax-ns#"
   xmlns:svg="http://www.w3.org/2000/svg"
   xmlns="http://www.w3.org/2000/svg"
   xmlns:sodipodi="http://sodipodi.sourceforge.net/DTD/sodipodi-0.dtd"
   xmlns:inkscape="http://www.inkscape.org/namespaces/inkscape"
   width="512"
   height="512"
   id="svg2"
   version="1.1"
   inkscape:version="0.48.2 r9819"
   sodipodi:docname="fully_supported.svg">
  <defs
     id="defs4" />
  <sodipodi:namedview
     id="base"
     pagecolor="#c0c0c0"
     bordercolor="#666666"
     borderopacity="1.0"
     inkscape:pageopacity="1"
     inkscape:pageshadow="2"
     inkscape:zoom="0.28255907"
     inkscape:cx="-395.00363"
     inkscape:cy="260.52466"
     inkscape:document-units="px"
     inkscape:current-layer="layer1"
     showgrid="false"
     inkscape:snap-bbox="true"
     inkscape:bbox-paths="true"
     inkscape:bbox-nodes="true"
     inkscape:snap-bbox-edge-midpoints="true"
     inkscape:snap-bbox-midpoints="true"
     inkscape:snap-page="true"
     inkscape:window-width="1107"
     inkscape:window-height="810"
     inkscape:window-x="0"
     inkscape:window-y="0"
     inkscape:window-maximized="0"
     inkscape:snap-global="false" />
  <metadata
     id="metadata7">
    <rdf:RDF>
      <cc:Work
         rdf:about="">
        <dc:format>image/svg+xml</dc:format>
        <dc:type
           rdf:resource="http://purl.org/dc/dcmitype/StillImage" />
        <dc:title />
      </cc:Work>
    </rdf:RDF>
  </metadata>
  <g
     inkscape:label="Layer 1"
     inkscape:groupmode="layer"
     id="layer1"
     transform="translate(0,-540.36218)">
    <path
       sodipodi:type="arc"
       style="fill:#40ff40;fill-opacity:1;fill-rule:evenodd;stroke:#000000;stroke-width:11.35077953000000051;stroke-miterlimit:4;stroke-opacity:1;stroke-dasharray:none"
       id="path2985"
       sodipodi:cx="298.5"
       sodipodi:cy="255.5"
       sodipodi:rx="171.5"
       sodipodi:ry="180.5"
       d="M 470,255.5 C 470,355.1874 393.21683,436 298.5,436 203.78317,436 127,355.1874 127,255.5 127,155.8126 203.78317,75 298.5,75 393.21683,75 470,155.8126 470,255.5 z"
       transform="matrix(1.4460655,0,0,1.3739625,-175.65056,445.31476)" />
    <path
       style="fill:none;stroke:#000000;stroke-width:16;stroke-linecap:butt;stroke-linejoin:miter;stroke-miterlimit:4;stroke-opacity:1;stroke-dasharray:none"
       d="m 110,888.36218 c 2,36 27.50233,75.30531 84,76 56.49767,0.69469 139,-18 197,-82"
       id="path3776"
       inkscape:connector-curvature="0"
       sodipodi:nodetypes="czc" />
    <path
       style="fill:none;stroke:#000000;stroke-width:16;stroke-linecap:butt;stroke-linejoin:miter;stroke-miterlimit:4;stroke-opacity:1;stroke-dasharray:none"
       d="m 378.2127,781.08981 c -59,-4 -114,38 -114,38 0,0 18,-73 78,-102"
       id="path3778"
       inkscape:connector-curvature="0"
       sodipodi:nodetypes="ccc" />
    <path
       style="fill:none;stroke:#000000;stroke-width:16;stroke-linecap:butt;stroke-linejoin:miter;stroke-miterlimit:4;stroke-opacity:1;stroke-dasharray:none"
       d="m 56,729.36218 c 4,-23 8.319494,-42.96717 34,-43 19.70757,-0.0252 33.85758,4.7013 51.06195,29.9292 C 158.26631,741.51929 157,773.36218 157,773.36218"
       id="path3780"
       inkscape:connector-curvature="0"
       sodipodi:nodetypes="cszc" />
    <path
       sodipodi:type="arc"
       style="fill:#000000;fill-opacity:1;fill-rule:evenodd;stroke:#000000;stroke-width:16;stroke-linecap:butt;stroke-linejoin:miter;stroke-miterlimit:4;stroke-opacity:1;stroke-dasharray:none;stroke-dashoffset:0"
       id="path3782"
       sodipodi:cx="140"
       sodipodi:cy="238.5"
       sodipodi:rx="33"
       sodipodi:ry="60.5"
       d="m 173,238.5 c 0,33.41323 -14.7746,60.5 -33,60.5 -18.2254,0 -33,-27.08677 -33,-60.5 0,-33.41323 14.7746,-60.5 33,-60.5 18.2254,0 33,27.08677 33,60.5 z"
       transform="translate(-15,544.36218)" />
    <path
       sodipodi:type="arc"
       style="fill:#ffffff;fill-opacity:1;fill-rule:evenodd;stroke:none"
       id="path3784"
       sodipodi:cx="25.142965"
       sodipodi:cy="305.3371"
       sodipodi:rx="75.428894"
       sodipodi:ry="58.258091"
       d="m 100.57186,305.3371 c 0,32.17505 -33.770667,58.25809 -75.428895,58.25809 -41.658228,0 -75.428894,-26.08304 -75.428894,-58.25809 0,-32.17506 33.770666,-58.25809 75.428894,-58.25809 41.658228,0 75.428895,26.08303 75.428895,58.25809 z"
       transform="matrix(0.27872133,0,0,0.34314671,89.51188,698.05244)" />
  </g>
</svg>
