<?xml version="1.0" encoding="UTF-8" standalone="no"?>
<!-- Created with Inkscape (http://www.inkscape.org/) -->

<svg
   xmlns:dc="http://purl.org/dc/elements/1.1/"
   xmlns:cc="http://creativecommons.org/ns#"
   xmlns:rdf="http://www.w3.org/1999/02/22-rdf-syntax-ns#"
   xmlns:svg="http://www.w3.org/2000/svg"
   xmlns="http://www.w3.org/2000/svg"
   xmlns:sodipodi="http://sodipodi.sourceforge.net/DTD/sodipodi-0.dtd"
   xmlns:inkscape="http://www.inkscape.org/namespaces/inkscape"
   width="512"
   height="512"
   id="svg2"
   version="1.1"
   inkscape:version="0.48.2 r9819"
   sodipodi:docname="not_supported.svg">
  <defs
     id="defs4" />
  <sodipodi:namedview
     id="base"
     pagecolor="#c0c0c0"
     bordercolor="#666666"
     borderopacity="1.0"
     inkscape:pageopacity="1"
     inkscape:pageshadow="2"
     inkscape:zoom="0.89184514"
     inkscape:cx="202.27406"
     inkscape:cy="242.41267"
     inkscape:document-units="px"
     inkscape:current-layer="layer1"
     showgrid="false"
     inkscape:snap-bbox="true"
     inkscape:bbox-paths="true"
     inkscape:bbox-nodes="true"
     inkscape:snap-bbox-edge-midpoints="true"
     inkscape:snap-bbox-midpoints="true"
     inkscape:snap-page="true"
     inkscape:window-width="979"
     inkscape:window-height="780"
     inkscape:window-x="24"
     inkscape:window-y="14"
     inkscape:window-maximized="0"
     inkscape:snap-global="false" />
  <metadata
     id="metadata7">
    <rdf:RDF>
      <cc:Work
         rdf:about="">
        <dc:format>image/svg+xml</dc:format>
        <dc:type
           rdf:resource="http://purl.org/dc/dcmitype/StillImage" />
        <dc:title />
      </cc:Work>
    </rdf:RDF>
  </metadata>
  <g
     inkscape:label="Layer 1"
     inkscape:groupmode="layer"
     id="layer1"
     transform="translate(0,-540.36218)">
    <path
       sodipodi:type="arc"
       style="fill:#ffff00;fill-opacity:1;fill-rule:evenodd;stroke:#000000;stroke-width:11.35077953;stroke-miterlimit:4;stroke-opacity:1;stroke-dasharray:none"
       id="path2985"
       sodipodi:cx="298.5"
       sodipodi:cy="255.5"
       sodipodi:rx="171.5"
       sodipodi:ry="180.5"
       d="M 470,255.5 C 470,355.1874 393.21683,436 298.5,436 203.78317,436 127,355.1874 127,255.5 127,155.8126 203.78317,75 298.5,75 393.21683,75 470,155.8126 470,255.5 z"
       transform="matrix(1.4460655,0,0,1.3739625,-175.65056,445.31476)" />
    <path
       style="fill:none;stroke:#000000;stroke-width:16;stroke-linecap:butt;stroke-linejoin:miter;stroke-miterlimit:4;stroke-opacity:1;stroke-dasharray:none"
       d="M 182.76716,257.47151 C 148.00777,222.71211 130.1461,200.28669 98.671838,201.40796 67.197574,202.52923 58.974224,223.83337 57.184816,244.01624"
       id="path3015"
       inkscape:connector-curvature="0"
       transform="translate(0,540.36218)"
       sodipodi:nodetypes="czc" />
    <path
       sodipodi:type="arc"
       style="fill:#000000;fill-opacity:1;fill-rule:evenodd;stroke:none"
       id="path3785"
       sodipodi:cx="103.15692"
       sodipodi:cy="237.28864"
       sodipodi:rx="20.182877"
       sodipodi:ry="22.425419"
       d="m 123.3398,237.28864 c 0,12.38521 -9.03618,22.42541 -20.18288,22.42541 -11.146694,0 -20.182875,-10.0402 -20.182875,-22.42541 0,-12.38522 9.036181,-22.42542 20.182875,-22.42542 11.1467,0 20.18288,10.0402 20.18288,22.42542 z"
       transform="matrix(1.1388889,0,0,1.125,-26.100694,507.33728)" />
    <path
       style="fill:#ffffff;fill-opacity:1;stroke:#000000;stroke-width:16;stroke-linecap:butt;stroke-linejoin:miter;stroke-miterlimit:4;stroke-opacity:1;stroke-dasharray:none"
       d="m 141.28013,846.04834 c -43.729572,63.91245 116.61218,32.51685 155.85666,78.48897 39.24448,45.97211 47.09337,47.09336 47.09337,47.09336 0,0 -107.84497,-30.7876 -136.14491,-31.0705 -28.29994,-0.2829 -29.77115,17.07064 -33.16699,28.82797 -6.72762,-29.90056 -2.24254,-57.55858 -21.30414,-85.2166"
       id="path3787"
       inkscape:connector-curvature="0"
       sodipodi:nodetypes="czczcc" />
    <path
       style="fill:none;stroke:#000000;stroke-width:16;stroke-linecap:butt;stroke-linejoin:miter;stroke-miterlimit:4;stroke-opacity:1;stroke-dasharray:none"
       d="m 160.34173,663.28119 c -1.12127,22.60902 -11.2127,51.0313 -40.36574,45.9721 -29.153044,-5.0592 -62.791175,-17.94034 -67.276258,-23.54669"
       id="path3789"
       inkscape:connector-curvature="0"
       sodipodi:nodetypes="czc" />
    <path
       style="fill:none;stroke:#000000;stroke-width:16;stroke-linecap:butt;stroke-linejoin:miter;stroke-miterlimit:4;stroke-opacity:1;stroke-dasharray:none"
       d="m 244.43705,248.50134 c 1.12127,-25.78923 32.49864,-37.50562 60.54864,-38.12321 28.05001,-0.6176 66.15498,8.97018 79.61023,40.36577"
       id="path3791"
       inkscape:connector-curvature="0"
       transform="translate(0,540.36218)"
       sodipodi:nodetypes="czc" />
    <path
       sodipodi:type="arc"
       style="fill:#000000;fill-opacity:1;fill-rule:evenodd;stroke:none"
       id="path3785-7"
       sodipodi:cx="103.15692"
       sodipodi:cy="237.28864"
       sodipodi:rx="20.182877"
       sodipodi:ry="22.425419"
       d="m 123.3398,237.28864 c 0,12.38521 -9.03618,22.42541 -20.18288,22.42541 -11.146694,0 -20.182875,-10.0402 -20.182875,-22.42541 0,-12.38522 9.036181,-22.42542 20.182875,-22.42542 11.1467,0 20.18288,10.0402 20.18288,22.42542 z"
       transform="matrix(1.1388889,0,0,1.125,163.95472,507.33728)" />
    <path
       style="fill:none;stroke:#000000;stroke-width:16;stroke-linecap:butt;stroke-linejoin:miter;stroke-miterlimit:4;stroke-opacity:1;stroke-dasharray:none"
       d="m 232.66371,659.35673 c 1.12127,20.18288 -2.24255,37.00193 32.51685,37.00193 34.7594,0 87.45914,-19.06161 91.94422,-24.66796"
       id="path3789-9"
       inkscape:connector-curvature="0"
       sodipodi:nodetypes="czc" />
  </g>
</svg>
